<?xml version="1.0" encoding="UTF-8" standalone="no"?>
<!-- Created with Inkscape (http://www.inkscape.org/) -->
<svg id="svg2985" xmlns:rdf="http://www.w3.org/1999/02/22-rdf-syntax-ns#" xmlns="http://www.w3.org/2000/svg" xml:space="preserve" height="109.8" width="65.7" version="1.1" xmlns:cc="http://creativecommons.org/ns#" xmlns:dc="http://purl.org/dc/elements/1.1/"><metadata id="metadata2991"><rdf:RDF><cc:Work rdf:about=""><dc:format>image/svg+xml</dc:format><dc:type rdf:resource="http://purl.org/dc/dcmitype/StillImage"/><dc:title/></cc:Work></rdf:RDF></metadata><defs id="defs2989"><clipPath id="clipPath2999" clipPathUnits="userSpaceOnUse"><path id="path3001" d="m0,225.56,135.56,0v-225.56h-135.56v225.56z"/></clipPath></defs><g id="g2993" transform="matrix(1.25,0,0,-1.25,0,109.8005)"><g id="g2995"><g id="g2997" clip-path="url(#clipPath2999)"><g id="g3857" stroke-miterlimit="4" stroke-width="3.20000005" stroke-dasharray="none" transform="matrix(0.43898995,0,0,0.43898995,-3.4737743,-5.5878896)"><path id="path3855" stroke-linejoin="round" d="m0,0,0,45,15,15,30,0s10.84,34.095,7.5,45c-5.652,18.459-50.851,53.557-37.5,67.5,11.598,12.113,65.877-14.293,60-30-3.285-8.78-28.965-1.245-36.281,4.219-5.925,4.42-21.469,27.47-21.469,20.34,0-16.68,40.711-51.32,42.75-62.06,2.127-11.205-7.5-45-7.5-45h22.5l15-15-22.5-22.5v-15" transform="translate(22.7778,29.4854)" stroke="#585757" stroke-linecap="square" fill="none"/><g id="g3007" transform="translate(24.2778,29.4854)"><path id="path3009" d="M0,0c0-0.83-0.672-1.5-1.5-1.5s-1.5,0.67-1.5,1.5,0.672,1.5,1.5,1.5,1.5-0.67,1.5-1.5" fill-rule="nonzero" fill="#FFF"/></g><g id="g3011" transform="translate(24.2778,29.4854)"><path id="path3013" stroke-linejoin="round" d="M0,0c0-0.83-0.672-1.5-1.5-1.5s-1.5,0.67-1.5,1.5,0.672,1.5,1.5,1.5,1.5-0.67,1.5-1.5z" stroke="#585757" stroke-linecap="square" stroke-miterlimit="4" stroke-dasharray="none" stroke-width="3.20000005" fill="none"/></g><g id="g3015" transform="translate(30.2778,21.9854)"><path id="path3017" stroke-linejoin="round" d="m0,0,0,52.5,7.5,7.5,30,0-15-15-7.5,0" stroke="#585757" stroke-linecap="square" stroke-miterlimit="4" stroke-dasharray="none" stroke-width="3.20000005" fill="none"/></g><g id="g3019" transform="translate(31.7778,21.9854)"><path id="path3021" d="M0,0c0-0.83-0.672-1.5-1.5-1.5s-1.5,0.67-1.5,1.5,0.672,1.5,1.5,1.5,1.5-0.67,1.5-1.5" fill-rule="nonzero" fill="#FFF"/></g><g id="g3023" transform="translate(31.7778,21.9854)"><path id="path3025" stroke-linejoin="round" d="M0,0c0-0.83-0.672-1.5-1.5-1.5s-1.5,0.67-1.5,1.5,0.672,1.5,1.5,1.5,1.5-0.67,1.5-1.5z" stroke="#585757" stroke-linecap="square" stroke-miterlimit="4" stroke-dasharray="none" stroke-width="3.20000005" fill="none"/></g><g id="g3027" transform="translate(46.7778,66.9854)"><path id="path3029" d="M0,0c0-0.83-0.672-1.5-1.5-1.5s-1.5,0.67-1.5,1.5,0.672,1.5,1.5,1.5,1.5-0.67,1.5-1.5" fill-rule="nonzero" fill="#FFF"/></g><g id="g3031" transform="translate(46.7778,66.9854)"><path id="path3033" stroke-linejoin="round" d="M0,0c0-0.83-0.672-1.5-1.5-1.5s-1.5,0.67-1.5,1.5,0.672,1.5,1.5,1.5,1.5-0.67,1.5-1.5z" stroke="#585757" stroke-linecap="square" stroke-miterlimit="4" stroke-dasharray="none" stroke-width="3.20000005" fill="none"/></g><g id="g3035" transform="translate(45.2778,51.9854)"><path id="path3037" stroke-linejoin="round" d="M0,0,30,30,52.5,30,60,22.5,22.5-15" stroke="#585757" stroke-linecap="square" stroke-miterlimit="4" stroke-dasharray="none" stroke-width="3.20000005" fill="none"/></g><g id="g3039" transform="translate(46.7778,51.9854)"><path id="path3041" d="M0,0c0-0.83-0.672-1.5-1.5-1.5s-1.5,0.67-1.5,1.5,0.672,1.5,1.5,1.5,1.5-0.67,1.5-1.5" fill-rule="nonzero" fill="#FFF"/></g><g id="g3043" transform="translate(46.7778,51.9854)"><path id="path3045" stroke-linejoin="round" d="M0,0c0-0.83-0.672-1.5-1.5-1.5s-1.5,0.67-1.5,1.5,0.672,1.5,1.5,1.5,1.5-0.67,1.5-1.5z" stroke="#585757" stroke-linecap="square" stroke-miterlimit="4" stroke-dasharray="none" stroke-width="3.20000005" fill="none"/></g><g id="g3047" transform="translate(69.2778,36.9854)"><path id="path3049" d="M0,0c0-0.83-0.672-1.5-1.5-1.5s-1.5,0.67-1.5,1.5,0.672,1.5,1.5,1.5,1.5-0.67,1.5-1.5" fill-rule="nonzero" fill="#FFF"/></g><g id="g3051" transform="translate(69.2778,36.9854)"><path id="path3053" stroke-linejoin="round" d="M0,0c0-0.83-0.672-1.5-1.5-1.5s-1.5,0.67-1.5,1.5,0.672,1.5,1.5,1.5,1.5-0.67,1.5-1.5z" stroke="#585757" stroke-linecap="square" stroke-miterlimit="4" stroke-dasharray="none" stroke-width="3.20000005" fill="none"/></g><g id="g3055" transform="translate(91.7778,36.9854)"><path id="path3057" d="M0,0c0-0.83-0.672-1.5-1.5-1.5s-1.5,0.67-1.5,1.5,0.672,1.5,1.5,1.5,1.5-0.67,1.5-1.5" fill-rule="nonzero" fill="#FFF"/></g><g id="g3059" transform="translate(91.7778,36.9854)"><path id="path3061" stroke-linejoin="round" d="M0,0c0-0.83-0.672-1.5-1.5-1.5s-1.5,0.67-1.5,1.5,0.672,1.5,1.5,1.5,1.5-0.67,1.5-1.5z" stroke="#585757" stroke-linecap="square" stroke-miterlimit="4" stroke-dasharray="none" stroke-width="3.20000005" fill="none"/></g><g id="g3063" transform="translate(112.7778,66.9854)"><path id="path3065" stroke-linejoin="round" d="m0,0-15-15,0-22.5,7.5-7.5" stroke="#585757" stroke-linecap="square" stroke-miterlimit="4" stroke-dasharray="none" stroke-width="3.20000005" fill="none"/></g><g id="g3067" transform="translate(114.2778,66.9854)"><path id="path3069" d="M0,0c0-0.83-0.672-1.5-1.5-1.5s-1.5,0.67-1.5,1.5,0.672,1.5,1.5,1.5,1.5-0.67,1.5-1.5" fill-rule="nonzero" fill="#FFF"/></g><g id="g3071" transform="translate(114.2778,66.9854)"><path id="path3073" stroke-linejoin="round" d="M0,0c0-0.83-0.672-1.5-1.5-1.5s-1.5,0.67-1.5,1.5,0.672,1.5,1.5,1.5,1.5-0.67,1.5-1.5z" stroke="#585757" stroke-linecap="square" stroke-miterlimit="4" stroke-dasharray="none" stroke-width="3.20000005" fill="none"/></g><g id="g3075" transform="translate(106.7778,21.9854)"><path id="path3077" d="M0,0c0-0.83-0.672-1.5-1.5-1.5s-1.5,0.67-1.5,1.5,0.672,1.5,1.5,1.5,1.5-0.67,1.5-1.5" fill-rule="nonzero" fill="#FFF"/></g><g id="g3079" transform="translate(106.7778,21.9854)"><path id="path3081" stroke-linejoin="round" d="M0,0c0-0.83-0.672-1.5-1.5-1.5s-1.5,0.67-1.5,1.5,0.672,1.5,1.5,1.5,1.5-0.67,1.5-1.5z" stroke="#585757" stroke-linecap="square" stroke-miterlimit="4" stroke-dasharray="none" stroke-width="3.20000005" fill="none"/></g></g></g></g></g></svg>
